# xmcd
#
# Track frame offsets:
#  150
#  14078
#  27956
#  42460
#  71759
#  91120
#  103336
#  125298
#  156762
#  190911
#  208975
#  234654
#  257120
#  273810
#  295465
#  323942
#
# Disc length: 4604 seconds
#
# Revision: 0
# Processed by: cddbd v1.5.1PL0 Copyright (c) Steve Scherf et al.
# Submitted via: Collectorz.com Music Collector 6.9
#
DISCID=f311fa10
DTITLE=lyle lovett - Live At The Fred Kavli Theatre - Disc 1
DYEAR=1998
DGENRE=
TTITLE0=Babes In The Woods
TTITLE1=Bears
TTITLE2=Lungs
TTITLE3=Memphis Midnight/Memphis Morning
TTITLE4=Teach Me About Love
TTITLE5=Lonely In Love
TTITLE6=West Texas Highway
TTITLE7=Ballad Of The Snow Leapard And The Tanqueray Cowboy
TTITLE8=Sleepwalking
TTITLE9=More Pretty Girls Than One
TTITLE10=Flyin' Shoes
TTITLE11=If I Had A Boat
TTITLE12=She's No Lady
TTITLE13=I've Been To Memphis
TTITLE14=Church
TTITLE15=That's Right You're Not From Texas
EXTD=
EXTT0=
EXTT1=
EXTT2=
EXTT3=
EXTT4=
EXTT5=
EXTT6=
EXTT7=
EXTT8=
EXTT9=
EXTT10=
EXTT11=
EXTT12=
EXTT13=
EXTT14=
EXTT15=
PLAYORDER=
